<svg width="77" height="77" viewBox="0 0 77 77" fill="none" xmlns="http://www.w3.org/2000/svg">
<path d="M0 38.5015C0.000404494 17.2359 17.2375 0 38.4999 0V0.404494V0.808987C28.0911 0.808987 18.6708 5.02684 11.8486 11.8482C5.02725 18.67 0.809392 28.0907 0.808785 38.5013C0.809392 48.9104 5.02725 58.33 11.8486 65.1516C18.6708 71.973 28.0911 76.1902 38.4999 76.1902C48.9087 76.1902 58.329 71.9726 65.1512 65.1516C71.9728 58.33 76.1906 48.9101 76.1906 38.5013C76.1906 28.0907 71.9728 18.67 65.1512 11.8482C58.329 5.02684 48.9087 0.808987 38.4999 0.808987V0.404494V0C59.7625 0 76.9996 17.2359 77 38.5015C76.9996 59.7635 59.7625 76.9998 38.4999 77C17.2375 76.9998 0.000404494 59.7635 0 38.5015Z" fill="#C5C9CC"/>
</svg>
